<svg width="24" height="25" viewBox="0 0 539 525" fill="none" xmlns="http://www.w3.org/2000/svg">
<rect x="0.330078" width="538.33" height="525" rx="100" fill="#0052A5"/>
<mask id="path-2-inside-1_341_1623" fill="white">
<path fill-rule="evenodd" clip-rule="evenodd" d="M332.211 70.3146C331.658 70.3146 330.806 70.277 329.691 70.2277C321.488 69.8656 299.062 68.8754 277.097 77.6214C264.612 82.5929 252.261 90.7134 242.74 103.887C233.219 117.061 226.548 135.263 225.38 160.365L225.379 160.374V217.452H164V288.959H225.379V525H299.967V288.959H361.301L370.334 217.452H299.967C299.965 213.868 299.939 209.63 299.91 205.078C299.865 197.869 299.815 189.872 299.851 182.445C299.88 176.305 299.967 170.563 300.164 165.989C300.262 163.701 300.387 161.71 300.545 160.11C300.705 158.5 300.895 157.313 301.115 156.617C303.411 149.352 309.161 143.602 314.136 140.925C316.412 139.7 319.633 138.835 322.856 138.278C326.073 137.722 329.256 137.477 331.434 137.477H373V73.0321H372.628C362.269 72.1264 339.686 70.3146 332.211 70.3146Z"/>
</mask>
<path d="M329.691 70.2277L334.367 -35.6691L334.366 -35.6691L329.691 70.2277ZM277.097 77.6214L316.31 176.102L316.31 176.102L277.097 77.6214ZM242.74 103.887L156.827 41.7986L156.827 41.7986L242.74 103.887ZM225.38 160.365L119.494 155.437L119.494 155.438L225.38 160.365ZM225.379 160.374L119.494 155.447L119.379 157.909V160.374H225.379ZM225.379 217.452V323.452H331.379V217.452H225.379ZM164 217.452V111.452H58V217.452H164ZM164 288.959H58V394.959H164V288.959ZM225.379 288.959H331.379V182.959H225.379V288.959ZM225.379 525H119.379V631H225.379V525ZM299.967 525V631H405.967V525H299.967ZM299.967 288.959V182.959H193.967V288.959H299.967ZM361.301 288.959V394.959H454.753L466.465 302.244L361.301 288.959ZM370.334 217.452L475.498 230.736L490.566 111.452L370.334 111.452V217.452ZM299.967 217.452L193.967 217.506L194.021 323.452H299.967V217.452ZM299.91 205.078L193.912 205.74L193.912 205.74L299.91 205.078ZM299.851 182.445L405.849 182.949L405.849 182.949L299.851 182.445ZM300.164 165.989L406.066 170.535L406.066 170.535L300.164 165.989ZM300.545 160.11L406.031 170.544L406.031 170.544L300.545 160.11ZM301.115 156.617L200.041 124.679L200.041 124.679L301.115 156.617ZM314.136 140.925L364.367 234.267L364.367 234.267L314.136 140.925ZM322.856 138.278L340.92 242.727L340.921 242.727L322.856 138.278ZM373 137.477V243.477H479V137.477H373ZM373 73.0321H479V-32.9679H373V73.0321ZM372.628 73.0321L363.396 178.629L368.003 179.032H372.628V73.0321ZM325.015 176.125C325.454 176.144 326.366 176.185 327.251 176.217C327.972 176.244 329.911 176.315 332.211 176.315V-35.6854C333.209 -35.6854 333.969 -35.6693 334.342 -35.6601C334.742 -35.6503 335.012 -35.6404 335.072 -35.6382C335.141 -35.6356 335.133 -35.6357 334.989 -35.6419C334.841 -35.6482 334.664 -35.6559 334.367 -35.6691L325.015 176.125ZM316.31 176.102C315.449 176.444 315.124 176.482 315.48 176.406C315.831 176.332 316.525 176.214 317.57 176.125C319.773 175.937 321.744 175.98 325.015 176.125L334.366 -35.6691C325.313 -36.0688 282.709 -38.707 237.885 -20.8589L316.31 176.102ZM328.653 165.976C326.608 168.805 324.14 171.208 321.65 173.041C319.263 174.798 317.313 175.702 316.31 176.102L237.885 -20.8589C210.609 -9.99842 180.39 9.19457 156.827 41.7986L328.653 165.976ZM331.265 165.293C331.469 160.906 332.044 159.465 331.832 160.124C331.727 160.449 331.456 161.205 330.918 162.277C330.377 163.355 329.634 164.618 328.653 165.976L156.827 41.7986C133.179 74.5218 121.444 113.553 119.494 155.437L331.265 165.293ZM331.265 165.301L331.265 165.292L119.494 155.438L119.494 155.447L331.265 165.301ZM193.912 205.74C193.941 210.385 193.965 214.29 193.967 217.506L405.967 217.398C405.965 213.447 405.936 208.875 405.908 204.416L193.912 205.74ZM193.852 181.942C193.813 190.054 193.868 198.645 193.912 205.74L405.908 204.416C405.863 197.092 405.817 189.69 405.849 182.949L193.852 181.942ZM194.261 161.442C193.977 168.057 193.883 175.397 193.852 181.942L405.849 182.949C405.877 177.213 405.957 173.068 406.066 170.535L194.261 161.442ZM195.06 149.675C194.629 154.032 194.4 158.197 194.261 161.442L406.066 170.535C406.072 170.402 406.077 170.282 406.082 170.174C406.087 170.066 406.092 169.973 406.096 169.893C406.101 169.813 406.104 169.749 406.107 169.701C406.11 169.652 406.112 169.621 406.113 169.608C406.113 169.594 406.113 169.601 406.111 169.627C406.109 169.653 406.106 169.703 406.1 169.775C406.094 169.847 406.086 169.947 406.075 170.073C406.064 170.198 406.049 170.356 406.031 170.544L195.06 149.675ZM200.041 124.679C196.191 136.863 195.248 147.78 195.06 149.675L406.031 170.544C405.971 171.151 405.802 172.76 405.438 175.006C405.25 176.165 404.953 177.841 404.507 179.88C404.083 181.821 403.356 184.862 402.189 188.556L200.041 124.679ZM263.904 47.5827C238.458 61.2763 211.87 87.2433 200.041 124.679L402.188 188.556C398.184 201.229 391.916 210.544 386.375 216.873C380.993 223.021 373.857 229.161 364.367 234.267L263.904 47.5827ZM304.792 33.8285C297.802 35.0374 281.251 38.2475 263.904 47.5827L364.367 234.267C356.952 238.258 350.892 240.208 348.049 241.044C344.815 241.995 342.346 242.481 340.92 242.727L304.792 33.8285ZM331.434 31.4774C322.788 31.4774 313.553 32.3133 304.792 33.8285L340.921 242.727C339.409 242.989 338.098 243.148 336.914 243.253C335.837 243.349 334.002 243.477 331.434 243.477V31.4774ZM372.628 179.032H373V-32.9679H372.628V179.032ZM332.211 176.315C330.944 176.315 331.266 176.279 334.375 176.45C336.905 176.59 340.12 176.801 343.737 177.061C350.952 177.58 358.63 178.213 363.396 178.629L381.86 -32.5651C373.681 -33.2802 345.466 -35.6854 332.211 -35.6854V176.315ZM331.379 217.452V160.374H119.379V217.452H331.379ZM164 323.452H225.379V111.452H164V323.452ZM270 288.959V217.452H58V288.959H270ZM225.379 182.959H164V394.959H225.379V182.959ZM331.379 525V288.959H119.379V525H331.379ZM299.967 419H225.379V631H299.967V419ZM193.967 288.959V525H405.967V288.959H193.967ZM361.301 182.959H299.967V394.959H361.301V182.959ZM265.169 204.167L256.136 275.675L466.465 302.244L475.498 230.736L265.169 204.167ZM299.967 323.452H370.334V111.452H299.967V323.452ZM373 31.4774H331.434V243.477H373V31.4774ZM267 73.0321V137.477H479V73.0321H267Z" fill="white" mask="url(#path-2-inside-1_341_1623)"/>
<path d="M329.691 70.2277L334.367 -35.6691L334.366 -35.6691L329.691 70.2277ZM277.097 77.6214L316.31 176.102L316.31 176.102L277.097 77.6214ZM242.74 103.887L156.827 41.7986L156.827 41.7986L242.74 103.887ZM225.38 160.365L119.494 155.437L119.494 155.438L225.38 160.365ZM225.379 160.374L119.494 155.447L119.379 157.909V160.374H225.379ZM225.379 217.452V323.452H331.379V217.452H225.379ZM164 217.452V111.452H58V217.452H164ZM164 288.959H58V394.959H164V288.959ZM225.379 288.959H331.379V182.959H225.379V288.959ZM225.379 525H119.379V631H225.379V525ZM299.967 525V631H405.967V525H299.967ZM299.967 288.959V182.959H193.967V288.959H299.967ZM361.301 288.959V394.959H454.753L466.465 302.244L361.301 288.959ZM370.334 217.452L475.498 230.736L490.566 111.452L370.334 111.452V217.452ZM299.967 217.452L193.967 217.506L194.021 323.452H299.967V217.452ZM299.91 205.078L193.912 205.74L193.912 205.74L299.91 205.078ZM299.851 182.445L405.849 182.949L405.849 182.949L299.851 182.445ZM300.164 165.989L406.066 170.535L406.066 170.535L300.164 165.989ZM300.545 160.11L406.031 170.544L406.031 170.544L300.545 160.11ZM301.115 156.617L200.041 124.679L200.041 124.679L301.115 156.617ZM314.136 140.925L364.367 234.267L364.367 234.267L314.136 140.925ZM322.856 138.278L340.92 242.727L340.921 242.727L322.856 138.278ZM373 137.477V243.477H479V137.477H373ZM373 73.0321H479V-32.9679H373V73.0321ZM372.628 73.0321L363.396 178.629L368.003 179.032H372.628V73.0321ZM325.015 176.125C325.454 176.144 326.366 176.185 327.251 176.217C327.972 176.244 329.911 176.315 332.211 176.315V-35.6854C333.209 -35.6854 333.969 -35.6693 334.342 -35.6601C334.742 -35.6503 335.012 -35.6404 335.072 -35.6382C335.141 -35.6356 335.133 -35.6357 334.989 -35.6419C334.841 -35.6482 334.664 -35.6559 334.367 -35.6691L325.015 176.125ZM316.31 176.102C315.449 176.444 315.124 176.482 315.48 176.406C315.831 176.332 316.525 176.214 317.57 176.125C319.773 175.937 321.744 175.98 325.015 176.125L334.366 -35.6691C325.313 -36.0688 282.709 -38.707 237.885 -20.8589L316.31 176.102ZM328.653 165.976C326.608 168.805 324.14 171.208 321.65 173.041C319.263 174.798 317.313 175.702 316.31 176.102L237.885 -20.8589C210.609 -9.99842 180.39 9.19457 156.827 41.7986L328.653 165.976ZM331.265 165.293C331.469 160.906 332.044 159.465 331.832 160.124C331.727 160.449 331.456 161.205 330.918 162.277C330.377 163.355 329.634 164.618 328.653 165.976L156.827 41.7986C133.179 74.5218 121.444 113.553 119.494 155.437L331.265 165.293ZM331.265 165.301L331.265 165.292L119.494 155.438L119.494 155.447L331.265 165.301ZM193.912 205.74C193.941 210.385 193.965 214.29 193.967 217.506L405.967 217.398C405.965 213.447 405.936 208.875 405.908 204.416L193.912 205.74ZM193.852 181.942C193.813 190.054 193.868 198.645 193.912 205.74L405.908 204.416C405.863 197.092 405.817 189.69 405.849 182.949L193.852 181.942ZM194.261 161.442C193.977 168.057 193.883 175.397 193.852 181.942L405.849 182.949C405.877 177.213 405.957 173.068 406.066 170.535L194.261 161.442ZM195.06 149.675C194.629 154.032 194.4 158.197 194.261 161.442L406.066 170.535C406.072 170.402 406.077 170.282 406.082 170.174C406.087 170.066 406.092 169.973 406.096 169.893C406.101 169.813 406.104 169.749 406.107 169.701C406.11 169.652 406.112 169.621 406.113 169.608C406.113 169.594 406.113 169.601 406.111 169.627C406.109 169.653 406.106 169.703 406.1 169.775C406.094 169.847 406.086 169.947 406.075 170.073C406.064 170.198 406.049 170.356 406.031 170.544L195.06 149.675ZM200.041 124.679C196.191 136.863 195.248 147.78 195.06 149.675L406.031 170.544C405.971 171.151 405.802 172.76 405.438 175.006C405.25 176.165 404.953 177.841 404.507 179.88C404.083 181.821 403.356 184.862 402.189 188.556L200.041 124.679ZM263.904 47.5827C238.458 61.2763 211.87 87.2433 200.041 124.679L402.188 188.556C398.184 201.229 391.916 210.544 386.375 216.873C380.993 223.021 373.857 229.161 364.367 234.267L263.904 47.5827ZM304.792 33.8285C297.802 35.0374 281.251 38.2475 263.904 47.5827L364.367 234.267C356.952 238.258 350.892 240.208 348.049 241.044C344.815 241.995 342.346 242.481 340.92 242.727L304.792 33.8285ZM331.434 31.4774C322.788 31.4774 313.553 32.3133 304.792 33.8285L340.921 242.727C339.409 242.989 338.098 243.148 336.914 243.253C335.837 243.349 334.002 243.477 331.434 243.477V31.4774ZM372.628 179.032H373V-32.9679H372.628V179.032ZM332.211 176.315C330.944 176.315 331.266 176.279 334.375 176.45C336.905 176.59 340.12 176.801 343.737 177.061C350.952 177.58 358.63 178.213 363.396 178.629L381.86 -32.5651C373.681 -33.2802 345.466 -35.6854 332.211 -35.6854V176.315ZM331.379 217.452V160.374H119.379V217.452H331.379ZM164 323.452H225.379V111.452H164V323.452ZM270 288.959V217.452H58V288.959H270ZM225.379 182.959H164V394.959H225.379V182.959ZM331.379 525V288.959H119.379V525H331.379ZM299.967 419H225.379V631H299.967V419ZM193.967 288.959V525H405.967V288.959H193.967ZM361.301 182.959H299.967V394.959H361.301V182.959ZM265.169 204.167L256.136 275.675L466.465 302.244L475.498 230.736L265.169 204.167ZM299.967 323.452H370.334V111.452H299.967V323.452ZM373 31.4774H331.434V243.477H373V31.4774ZM267 73.0321V137.477H479V73.0321H267Z" fill="white" mask="url(#path-2-inside-1_341_1623)"/>
</svg>
